<svg xmlns="http://www.w3.org/2000/svg" viewBox="0 0 512 512">
  <rect width="512" height="512" fill="#111"/>
  <!-- cave passage silhouette -->
  <ellipse cx="256" cy="270" rx="190" ry="150" fill="#1a1a2e"/>
  <ellipse cx="256" cy="270" rx="160" ry="120" fill="#222244"/>
  <!-- stalactites -->
  <polygon points="140,120 120,200 160,200" fill="#4af"/>
  <polygon points="200,100 180,195 220,195" fill="#4af"/>
  <polygon points="260,90 240,200 280,200" fill="#4af"/>
  <polygon points="320,100 300,195 340,195" fill="#4af"/>
  <polygon points="380,120 360,200 400,200" fill="#4af"/>
  <!-- stalagmites -->
  <polygon points="130,400 150,310 170,400" fill="#4af"/>
  <polygon points="210,400 230,305 250,400" fill="#4af"/>
  <polygon points="270,400 290,300 310,400" fill="#4af"/>
  <polygon points="345,400 365,308 385,400" fill="#4af"/>
  <!-- survey line dots -->
  <circle cx="180" cy="270" r="6" fill="#ff6"/>
  <circle cx="256" cy="255" r="6" fill="#ff6"/>
  <circle cx="330" cy="265" r="6" fill="#ff6"/>
  <line x1="180" y1="270" x2="256" y2="255" stroke="#ff6" stroke-width="2"/>
  <line x1="256" y1="255" x2="330" y2="265" stroke="#ff6" stroke-width="2"/>
</svg>
